# xmcd CD database file
#
# Track frame offsets:
#	150
#	9180
#	17468
#	31408
#	46345
#	60225
#	76068
#	93513
#	105255
#	123878
#	149580
#	161140
#	179270
#
# Disc length: 2653 seconds
#
# Revision: 0
# Processed by: cddbd v1.5.1PL0 Copyright (c) Steve Scherf et al.
# Submitted via: CDex 1.51
#
DISCID=900a5b0d
DTITLE=Sham69 - Live In Japan
DYEAR=1900
DGENRE=Rock
TTITLE0=What Have We Got
TTITLE1=Angels With Dirty Faces
TTITLE2=Mister You're A Better Man Than I
TTITLE3=Tell The Children
TTITLE4=Poor Cow
TTITLE5=How The West Was Won
TTITLE6=Carolines Suitcase
TTITLE7=Borstal Breakout
TTITLE8=Vision and Power
TTITLE9=If The Kids Are United
TTITLE10=Money
TTITLE11=Hersham Boys
TTITLE12=Rip and Tear
EXTD=
EXTT0=
EXTT1=
EXTT2=
EXTT3=
EXTT4=
EXTT5=
EXTT6=
EXTT7=
EXTT8=
EXTT9=
EXTT10=
EXTT11=
EXTT12=
PLAYORDER=
